<svg fill="#ffffff" height="200px" width="200px" version="1.1" id="Capa_1" xmlns="http://www.w3.org/2000/svg" xmlns:xlink="http://www.w3.org/1999/xlink" viewBox="-132.3 -132.3 754.60 754.60" xml:space="preserve" transform="rotate(270)" stroke="#ffffff" stroke-width="24.5"><g id="SVGRepo_bgCarrier" stroke-width="0"></g><g id="SVGRepo_tracerCarrier" stroke-linecap="round" stroke-linejoin="round" stroke="#CCCCCC" stroke-width="0.9800000000000001"></g><g id="SVGRepo_iconCarrier"> <g> <path d="M78.913,165.422V0H57.765v165.422C25.087,170.673,0,199.851,0,234.95c0,35.1,25.087,64.278,57.765,69.528V490h21.148 V304.478c32.677-5.25,57.76-34.428,57.76-69.528C136.673,199.851,111.59,170.673,78.913,165.422z M68.339,283.547 c-26.022,0-47.191-21.8-47.191-48.596c0-26.796,21.169-48.595,47.191-48.595c26.017,0,47.186,21.8,47.186,48.595 C115.525,261.747,94.356,283.547,68.339,283.547z"></path> <path d="M255.573,78.248V0h-21.148v78.248c-32.676,5.249-57.76,34.419-57.76,69.518c0,35.098,25.084,64.277,57.76,69.528V490 h21.148V217.294c32.677-5.251,57.765-34.43,57.765-69.528C313.338,112.665,288.251,83.496,255.573,78.248z M244.999,196.362 c-26.016,0-47.186-21.8-47.186-48.596c0-26.786,21.169-48.585,47.186-48.585c26.023,0,47.191,21.799,47.191,48.585 C292.19,174.562,271.022,196.362,244.999,196.362z"></path> <path d="M490,278.538c0-35.098-25.084-64.268-57.76-69.517V0h-21.148v209.021c-32.677,5.249-57.76,34.419-57.76,69.517 c0,35.1,25.083,64.278,57.76,69.528V490h21.148V348.066C464.916,342.816,490,313.638,490,278.538z M421.666,327.134 c-26.017,0-47.186-21.799-47.186-48.596c0-26.785,21.168-48.585,47.186-48.585c26.016,0,47.186,21.8,47.186,48.585 C468.852,305.335,447.683,327.134,421.666,327.134z"></path> </g> </g></svg>
